{
  "accessors": [
    {
      "bufferView": 2,
      "componentType": 5126,
      "count": 50,
      "max": [
        7.694080829620361,
        32.43489074707031,
        13.134805679321289
      ],
      "min": [
        -7.6940789222717285,
        26.92009162902832,
        9.49566650390625
      ],
      "type": "VEC3"
    },
    {
      "bufferView": 2,
      "byteOffset": 600,
      "componentType": 5126,
      "count": 50,
      "max": [
        0.7460501790046692,
        0.6277270913124084,
        0.9488478899002075
      ],
      "min": [
        -0.7460501194000244,
        0.11471270769834518,
        0.613786518573761
      ],
      "type": "VEC3"
    },
    {
      "bufferView": 1,
      "componentType": 5126,
      "count": 50,
      "max": [
        0.4938200116157532,
        1.985859990119934
      ],
      "min": [
        0.006175999995321035,
        1.7662800550460815
      ],
      "type": "VEC2"
    },
    {
      "bufferView": 0,
      "componentType": 5125,
      "count": 192,
      "type": "SCALAR"
    },
    {
      "bufferView": 2,
      "byteOffset": 1200,
      "componentType": 5126,
      "count": 46,
      "max": [
        3.471700668334961,
        27.455490112304688,
        14.491004943847656
      ],
      "min": [
        -3.4716994762420654,
        19.922191619873047,
        10.467702865600586
      ],
      "type": "VEC3"
    },
    {
      "bufferView": 2,
      "byteOffset": 1752,
      "componentType": 5126,
      "count": 46,
      "max": [
        0.48103269934654236,
        0.79135662317276,
        0.9994474053382874
      ],
      "min": [
        -0.48103272914886475,
        -0.8030232191085815,
        0.5693978667259216
      ],
      "type": "VEC3"
    },
    {
      "bufferView": 1,
      "byteOffset": 400,
      "componentType": 5126,
      "count": 46,
      "max": [
        0.35030999779701233,
        2.994349956512451
      ],
      "min": [
        0.14968599379062653,
        2.7560501098632813
      ],
      "type": "VEC2"
    },
    {
      "bufferView": 0,
      "byteOffset": 768,
      "componentType": 5125,
      "count": 204,
      "type": "SCALAR"
    },
    {
      "bufferView": 2,
      "byteOffset": 2304,
      "componentType": 5126,
      "count": 76,
      "max": [
        9.949481010437012,
        28.525394439697266,
        11.33560562133789
      ],
      "min": [
        -9.949480056762695,
        21.279293060302734,
        5.993163108825684
      ],
      "type": "VEC3"
    },
    {
      "bufferView": 2,
      "byteOffset": 3216,
      "componentType": 5126,
      "count": 76,
      "max": [
        0.9911482334136963,
        0.3016725182533264,
        0.7907546758651733
      ],
      "min": [
        -0.9911482930183411,
        -0.6881323456764221,
        0.09285511076450348
      ],
      "type": "VEC3"
    },
    {
      "bufferView": 1,
      "byteOffset": 768,
      "componentType": 5126,
      "count": 76,
      "max": [
        0.4954099953174591,
        2.9417500495910645
      ],
      "min": [
        0.004592000972479582,
        2.754970073699951
      ],
      "type": "VEC2"
    },
    {
      "bufferView": 0,
      "byteOffset": 1584,
      "componentType": 5125,
      "count": 336,
      "type": "SCALAR"
    },
    {
      "bufferView": 2,
      "byteOffset": 4128,
      "componentType": 5126,
      "count": 2081,
      "max": [
        12.037505149841309,
        38.089603424072266,
        12.18740177154541
      ],
      "min": [
        -15.060803413391113,
        -0.0011663755867630243,
        -36.55760192871094
      ],
      "type": "VEC3"
    },
    {
      "bufferView": 2,
      "byteOffset": 29100,
      "componentType": 5126,
      "count": 2081,
      "max": [
        1.0000001192092896,
        1.0,
        0.9973435997962952
      ],
      "min": [
        -1.0000001192092896,
        -1.000000238418579,
        -0.997056245803833
      ],
      "type": "VEC3"
    },
    {
      "bufferView": 1,
      "byteOffset": 1376,
      "componentType": 5126,
      "count": 2081,
      "max": [
        1.9776500463485718,
        0.9914010167121887
      ],
      "min": [
        1.0065699815750122,
        0.008415999822318554
      ],
      "type": "VEC2"
    },
    {
      "bufferView": 0,
      "byteOffset": 2928,
      "componentType": 5125,
      "count": 8304,
      "type": "SCALAR"
    },
    {
      "bufferView": 2,
      "byteOffset": 54072,
      "componentType": 5126,
      "count": 4396,
      "max": [
        17.341096878051758,
        47.33069610595703,
        13.724705696105957
      ],
      "min": [
        -17.341100692749023,
        10.883498191833496,
        -14.282891273498535
      ],
      "type": "VEC3"
    },
    {
      "bufferView": 2,
      "byteOffset": 106824,
      "componentType": 5126,
      "count": 4396,
      "max": [
        0.9999461770057678,
        0.9999769926071167,
        0.9999495148658752
      ],
      "min": [
        -0.9999462366104126,
        -0.9997901916503906,
        -0.9999998211860657
      ],
      "type": "VEC3"
    },
    {
      "bufferView": 1,
      "byteOffset": 18024,
      "componentType": 5126,
      "count": 4396,
      "max": [
        0.9972320199012756,
        0.9918450117111206
      ],
      "min": [
        0.002767999889329076,
        0.00914399977773428
      ],
      "type": "VEC2"
    },
    {
      "bufferView": 0,
      "byteOffset": 36144,
      "componentType": 5125,
      "count": 22560,
      "type": "SCALAR"
    },
    {
      "bufferView": 2,
      "byteOffset": 159576,
      "componentType": 5126,
      "count": 50,
      "max": [
        7.694080829620361,
        32.43489074707031,
        13.134805679321289
      ],
      "min": [
        -7.6940789222717285,
        26.92009162902832,
        9.49566650390625
      ],
      "type": "VEC3"
    },
    {
      "bufferView": 2,
      "byteOffset": 160176,
      "componentType": 5126,
      "count": 50,
      "max": [
        0.7460501790046692,
        0.6277270913124084,
        0.9488478899002075
      ],
      "min": [
        -0.7460501194000244,
        0.11471270769834518,
        0.613786518573761
      ],
      "type": "VEC3"
    },
    {
      "bufferView": 1,
      "byteOffset": 53192,
      "componentType": 5126,
      "count": 50,
      "max": [
        0.4938200116157532,
        1.985859990119934
      ],
      "min": [
        0.006175999995321035,
        1.7662800550460815
      ],
      "type": "VEC2"
    },
    {
      "bufferView": 0,
      "byteOffset": 126384,
      "componentType": 5125,
      "count": 192,
      "type": "SCALAR"
    },
    {
      "bufferView": 2,
      "byteOffset": 160776,
      "componentType": 5126,
      "count": 46,
      "max": [
        3.471700668334961,
        27.455490112304688,
        14.491004943847656
      ],
      "min": [
        -3.4716994762420654,
        19.922191619873047,
        10.467702865600586
      ],
      "type": "VEC3"
    },
    {
      "bufferView": 2,
      "byteOffset": 161328,
      "componentType": 5126,
      "count": 46,
      "max": [
        0.48103269934654236,
        0.79135662317276,
        0.9994474053382874
      ],
      "min": [
        -0.48103272914886475,
        -0.8030232191085815,
        0.5693978667259216
      ],
      "type": "VEC3"
    },
    {
      "bufferView": 1,
      "byteOffset": 53592,
      "componentType": 5126,
      "count": 46,
      "max": [
        0.35030999779701233,
        2.994349956512451
      ],
      "min": [
        0.14968599379062653,
        2.7560501098632813
      ],
      "type": "VEC2"
    },
    {
      "bufferView": 0,
      "byteOffset": 127152,
      "componentType": 5125,
      "count": 204,
      "type": "SCALAR"
    },
    {
      "bufferView": 2,
      "byteOffset": 161880,
      "componentType": 5126,
      "count": 76,
      "max": [
        9.949481010437012,
        28.525394439697266,
        11.33560562133789
      ],
      "min": [
        -9.949480056762695,
        21.279293060302734,
        5.993163108825684
      ],
      "type": "VEC3"
    },
    {
      "bufferView": 2,
      "byteOffset": 162792,
      "componentType": 5126,
      "count": 76,
      "max": [
        0.9911482334136963,
        0.3016725182533264,
        0.7907546758651733
      ],
      "min": [
        -0.9911482930183411,
        -0.6881323456764221,
        0.09285511076450348
      ],
      "type": "VEC3"
    },
    {
      "bufferView": 1,
      "byteOffset": 53960,
      "componentType": 5126,
      "count": 76,
      "max": [
        0.4954099953174591,
        2.9417500495910645
      ],
      "min": [
        0.004592000972479582,
        2.754970073699951
      ],
      "type": "VEC2"
    },
    {
      "bufferView": 0,
      "byteOffset": 127968,
      "componentType": 5125,
      "count": 336,
      "type": "SCALAR"
    },
    {
      "bufferView": 2,
      "byteOffset": 163704,
      "componentType": 5126,
      "count": 2081,
      "max": [
        12.037505149841309,
        38.089603424072266,
        12.18740177154541
      ],
      "min": [
        -15.060803413391113,
        -0.0011663755867630243,
        -36.55760192871094
      ],
      "type": "VEC3"
    },
    {
      "bufferView": 2,
      "byteOffset": 188676,
      "componentType": 5126,
      "count": 2081,
      "max": [
        1.0000001192092896,
        1.0,
        0.9973435997962952
      ],
      "min": [
        -1.0000001192092896,
        -1.000000238418579,
        -0.997056245803833
      ],
      "type": "VEC3"
    },
    {
      "bufferView": 1,
      "byteOffset": 54568,
      "componentType": 5126,
      "count": 2081,
      "max": [
        1.9776500463485718,
        0.9914010167121887
      ],
      "min": [
        1.0065699815750122,
        0.008415999822318554
      ],
      "type": "VEC2"
    },
    {
      "bufferView": 0,
      "byteOffset": 129312,
      "componentType": 5125,
      "count": 8304,
      "type": "SCALAR"
    },
    {
      "bufferView": 2,
      "byteOffset": 213648,
      "componentType": 5126,
      "count": 4396,
      "max": [
        17.341096878051758,
        47.33069610595703,
        13.724705696105957
      ],
      "min": [
        -17.341100692749023,
        10.883498191833496,
        -14.282891273498535
      ],
      "type": "VEC3"
    },
    {
      "bufferView": 2,
      "byteOffset": 266400,
      "componentType": 5126,
      "count": 4396,
      "max": [
        0.9999461770057678,
        0.9999769926071167,
        0.9999495148658752
      ],
      "min": [
        -0.9999462366104126,
        -0.9997901916503906,
        -0.9999998211860657
      ],
      "type": "VEC3"
    },
    {
      "bufferView": 1,
      "byteOffset": 71216,
      "componentType": 5126,
      "count": 4396,
      "max": [
        0.9972320199012756,
        0.9918450117111206
      ],
      "min": [
        0.002767999889329076,
        0.00914399977773428
      ],
      "type": "VEC2"
    },
    {
      "bufferView": 0,
      "byteOffset": 162528,
      "componentType": 5125,
      "count": 22560,
      "type": "SCALAR"
    }
  ],
  "asset": {
    "extras": {
      "author": "donmcdonough (https://sketchfab.com/donmcdonough)",
      "license": "CC-BY-4.0 (http://creativecommons.org/licenses/by/4.0/)",
      "source": "https://sketchfab.com/3d-models/pikachu-rockstar-8799c8fa45354c92a7ed6e5f78a69c8c",
      "title": "Pikachu Rockstar!"
    },
    "generator": "Sketchfab-12.82.2",
    "version": "2.0"
  },
  "bufferViews": [
    {
      "buffer": 0,
      "byteLength": 252768,
      "name": "floatBufferViews",
      "target": 34963
    },
    {
      "buffer": 0,
      "byteLength": 106384,
      "byteOffset": 252768,
      "byteStride": 8,
      "name": "floatBufferViews",
      "target": 34962
    },
    {
      "buffer": 0,
      "byteLength": 319152,
      "byteOffset": 359152,
      "byteStride": 12,
      "name": "floatBufferViews",
      "target": 34962
    }
  ],
  "buffers": [
    {
      "byteLength": 678304,
      "uri": "scene.bin"
    }
  ],
  "images": [
    {
      "uri": "textures/Material__111_baseColor.png"
    },
    {
      "uri": "textures/Material__112_baseColor.png"
    },
    {
      "uri": "textures/Material__109_baseColor.png"
    },
    {
      "uri": "textures/Material__110_baseColor.png"
    }
  ],
  "materials": [
    {
      "doubleSided": true,
      "name": "Material__111",
      "pbrMetallicRoughness": {
        "baseColorTexture": {
          "index": 0
        },
        "metallicFactor": 0.0,
        "roughnessFactor": 0.46167443876036063
      }
    },
    {
      "doubleSided": true,
      "name": "Material__112",
      "pbrMetallicRoughness": {
        "baseColorTexture": {
          "index": 1
        },
        "metallicFactor": 0.0,
        "roughnessFactor": 0.46167443876036063
      }
    },
    {
      "doubleSided": true,
      "name": "EnvironmentAmbientLight",
      "pbrMetallicRoughness": {
        "baseColorTexture": {
          "index": 1
        },
        "metallicFactor": 0.0,
        "roughnessFactor": 0.46167443876036063
      }
    },
    {
      "doubleSided": true,
      "name": "Material__109",
      "pbrMetallicRoughness": {
        "baseColorTexture": {
          "index": 2
        },
        "metallicFactor": 0.0,
        "roughnessFactor": 0.46167443876036063
      }
    },
    {
      "doubleSided": true,
      "name": "Material__110",
      "pbrMetallicRoughness": {
        "baseColorTexture": {
          "index": 3
        },
        "metallicFactor": 0.0,
        "roughnessFactor": 0.46167443876036063
      }
    }
  ],
  "meshes": [
    {
      "name": "Object_0",
      "primitives": [
        {
          "attributes": {
            "NORMAL": 1,
            "POSITION": 0,
            "TEXCOORD_0": 2
          },
          "indices": 3,
          "material": 0,
          "mode": 4
        }
      ]
    },
    {
      "name": "Object_1",
      "primitives": [
        {
          "attributes": {
            "NORMAL": 5,
            "POSITION": 4,
            "TEXCOORD_0": 6
          },
          "indices": 7,
          "material": 1,
          "mode": 4
        }
      ]
    },
    {
      "name": "Object_2",
      "primitives": [
        {
          "attributes": {
            "NORMAL": 9,
            "POSITION": 8,
            "TEXCOORD_0": 10
          },
          "indices": 11,
          "material": 2,
          "mode": 4
        }
      ]
    },
    {
      "name": "Object_3",
      "primitives": [
        {
          "attributes": {
            "NORMAL": 13,
            "POSITION": 12,
            "TEXCOORD_0": 14
          },
          "indices": 15,
          "material": 3,
          "mode": 4
        }
      ]
    },
    {
      "name": "Object_4",
      "primitives": [
        {
          "attributes": {
            "NORMAL": 17,
            "POSITION": 16,
            "TEXCOORD_0": 18
          },
          "indices": 19,
          "material": 4,
          "mode": 4
        }
      ]
    },
    {
      "name": "Object_5",
      "primitives": [
        {
          "attributes": {
            "NORMAL": 21,
            "POSITION": 20,
            "TEXCOORD_0": 22
          },
          "indices": 23,
          "material": 0,
          "mode": 4
        }
      ]
    },
    {
      "name": "Object_6",
      "primitives": [
        {
          "attributes": {
            "NORMAL": 25,
            "POSITION": 24,
            "TEXCOORD_0": 26
          },
          "indices": 27,
          "material": 1,
          "mode": 4
        }
      ]
    },
    {
      "name": "Object_7",
      "primitives": [
        {
          "attributes": {
            "NORMAL": 29,
            "POSITION": 28,
            "TEXCOORD_0": 30
          },
          "indices": 31,
          "material": 2,
          "mode": 4
        }
      ]
    },
    {
      "name": "Object_8",
      "primitives": [
        {
          "attributes": {
            "NORMAL": 33,
            "POSITION": 32,
            "TEXCOORD_0": 34
          },
          "indices": 35,
          "material": 3,
          "mode": 4
        }
      ]
    },
    {
      "name": "Object_9",
      "primitives": [
        {
          "attributes": {
            "NORMAL": 37,
            "POSITION": 36,
            "TEXCOORD_0": 38
          },
          "indices": 39,
          "material": 4,
          "mode": 4
        }
      ]
    }
  ],
  "nodes": [
    {
      "children": [
        1
      ],
      "matrix": [
        1.0,
        0.0,
        0.0,
        0.0,
        0.0,
        2.220446049250313e-16,
        -1.0,
        0.0,
        0.0,
        1.0,
        2.220446049250313e-16,
        0.0,
        0.0,
        0.0,
        0.0,
        1.0
      ],
      "name": "Sketchfab_model"
    },
    {
      "children": [
        2,
        15
      ],
      "name": "Collada visual scene group"
    },
    {
      "children": [
        3
      ],
      "matrix": [
        1.0,
        0.0,
        0.0,
        0.0,
        0.0,
        3.4906585055782813e-07,
        0.999999999999939,
        0.0,
        0.0,
        -0.999999999999939,
        3.4906585055782813e-07,
        0.0,
        0.0,
        0.0,
        0.0,
        1.0
      ],
      "name": "pm0025_12"
    },
    {
      "children": [
        4
      ],
      "name": "Origin"
    },
    {
      "children": [
        5,
        6,
        7,
        8,
        9,
        10,
        11,
        12,
        13,
        14
      ],
      "name": "Object_4"
    },
    {
      "mesh": 0,
      "name": "Object_5"
    },
    {
      "mesh": 1,
      "name": "Object_6"
    },
    {
      "mesh": 2,
      "name": "Object_7"
    },
    {
      "mesh": 3,
      "name": "Object_8"
    },
    {
      "mesh": 4,
      "name": "Object_9"
    },
    {
      "mesh": 5,
      "name": "Object_10"
    },
    {
      "mesh": 6,
      "name": "Object_11"
    },
    {
      "mesh": 7,
      "name": "Object_12"
    },
    {
      "mesh": 8,
      "name": "Object_13"
    },
    {
      "mesh": 9,
      "name": "Object_14"
    },
    {
      "children": [
        16
      ],
      "name": "EnvironmentAmbientLight"
    },
    {
      "name": "EnvironmentAmbientLight"
    }
  ],
  "samplers": [
    {
      "magFilter": 9729,
      "minFilter": 9987,
      "wrapS": 10497,
      "wrapT": 10497
    }
  ],
  "scene": 0,
  "scenes": [
    {
      "name": "Sketchfab_Scene",
      "nodes": [
        0
      ]
    }
  ],
  "textures": [
    {
      "sampler": 0,
      "source": 0
    },
    {
      "sampler": 0,
      "source": 1
    },
    {
      "sampler": 0,
      "source": 2
    },
    {
      "sampler": 0,
      "source": 3
    }
  ]
}
